<svg xmlns="http://www.w3.org/2000/svg" xmlns:xlink="http://www.w3.org/1999/xlink" width="105.109" height="105.109" viewBox="0 0 105.109 105.109">
  <defs>
    <filter id="Rect치ngulo_82" x="0" y="0" width="105.109" height="105.109" filterUnits="userSpaceOnUse">
      <feOffset dx="7" dy="7" input="SourceAlpha"/>
      <feGaussianBlur stdDeviation="6.5" result="blur"/>
      <feFlood flood-color="#4f2403" flood-opacity="0.161"/>
      <feComposite operator="in" in2="blur"/>
      <feComposite in="SourceGraphic"/>
    </filter>
  </defs>
  <g id="Grupo_230" data-name="Grupo 230" transform="translate(-312.785 -1043.447)">
    <g transform="matrix(1, 0, 0, 1, 312.79, 1043.45)" filter="url(#Rect치ngulo_82)">
      <rect id="Rect치ngulo_82-2" data-name="Rect치ngulo 82" width="66.109" height="66.109" transform="translate(12.5 12.5)" fill="#023a77"/>
    </g>
    <g id="Grupo_108" data-name="Grupo 108" transform="translate(-6513.998)">
      <g id="_01_align_center" data-name=" 01 align center">
        <path id="Trazado_3617" data-name="Trazado 3617" d="M6869.047,1087.13a6.58,6.58,0,1,0-6.58-6.58A6.58,6.58,0,0,0,6869.047,1087.13Zm0-10.967a4.387,4.387,0,1,1-4.386,4.387A4.387,4.387,0,0,1,6869.047,1076.163Z" fill="#fff"/>
        <path id="Trazado_3618" data-name="Trazado 3618" d="M6882.207,1084.936v-3.29h-2.193v3.29h-3.29v2.193h3.29v3.29h2.193v-3.29h3.29v-2.193Z" fill="#fff"/>
        <path id="Trazado_3619" data-name="Trazado 3619" d="M6873.481,1089.323h-8.868a5.444,5.444,0,0,0-5.436,5.436v5.53h2.194v-5.53a3.245,3.245,0,0,1,3.242-3.243h8.868a3.247,3.247,0,0,1,3.243,3.243v5.53h2.193v-5.53A5.443,5.443,0,0,0,6873.481,1089.323Z" fill="#fff"/>
      </g>
    </g>
  </g>
</svg>
