<svg xmlns="http://www.w3.org/2000/svg" xmlns:xlink="http://www.w3.org/1999/xlink" width="105.812" height="105.812" viewBox="0 0 105.812 105.812">
  <defs>
    <filter id="Elipse_204" x="0" y="0" width="105.812" height="105.812" filterUnits="userSpaceOnUse">
      <feOffset dx="5" dy="10" input="SourceAlpha"/>
      <feGaussianBlur stdDeviation="5" result="blur"/>
      <feFlood flood-color="#1e2577" flood-opacity="0.302"/>
      <feComposite operator="in" in2="blur"/>
      <feComposite in="SourceGraphic"/>
    </filter>
  </defs>
  <g id="Grupo_242" data-name="Grupo 242" transform="translate(-410.053 -1363.246)">
    <g transform="matrix(1, 0, 0, 1, 410.05, 1363.25)" filter="url(#Elipse_204)">
      <circle id="Elipse_204-2" data-name="Elipse 204" cx="37.906" cy="37.906" r="37.906" transform="translate(10 5)" fill="#023a77"/>
    </g>
    <g id="Grupo_133" data-name="Grupo 133" transform="translate(-4473.071)">
      <path id="Trazado_3677" data-name="Trazado 3677" d="M4942.823,1416.873H4921.38a1.072,1.072,0,0,1-1.072-1.072v-21.442a1.072,1.072,0,1,0-2.144,0V1415.8a3.216,3.216,0,0,0,3.216,3.217h21.443a1.072,1.072,0,0,0,0-2.145Z" fill="#fff"/>
      <path id="Trazado_3678" data-name="Trazado 3678" d="M4934.246,1414.729a1.072,1.072,0,0,0,1.072-1.072v-7.505a1.072,1.072,0,1,0-2.144,0v7.505A1.072,1.072,0,0,0,4934.246,1414.729Z" fill="#fff"/>
      <path id="Trazado_3679" data-name="Trazado 3679" d="M4925.669,1414.729a1.072,1.072,0,0,0,1.072-1.072v-7.505a1.072,1.072,0,1,0-2.144,0v7.505A1.072,1.072,0,0,0,4925.669,1414.729Z" fill="#fff"/>
      <path id="Trazado_3680" data-name="Trazado 3680" d="M4938.534,1414.729a1.072,1.072,0,0,0,1.072-1.072v-12.865a1.072,1.072,0,1,0-2.144,0v12.865A1.072,1.072,0,0,0,4938.534,1414.729Z" fill="#fff"/>
      <path id="Trazado_3681" data-name="Trazado 3681" d="M4929.957,1414.729a1.072,1.072,0,0,0,1.072-1.072v-12.865a1.072,1.072,0,1,0-2.144,0v12.865A1.072,1.072,0,0,0,4929.957,1414.729Z" fill="#fff"/>
    </g>
  </g>
</svg>
