<svg xmlns="http://www.w3.org/2000/svg" width="54.86" height="52.835" viewBox="0 0 54.86 52.835">
  <g id="Grupo_237" data-name="Grupo 237" transform="translate(-322.248 -2393.036)">
    <path id="Trazado_3747" data-name="Trazado 3747" d="M2603.943,2438.194a12.316,12.316,0,0,1-1.018,1.408c-1.109,1.163-2.26,2.285-3.4,3.417a2.043,2.043,0,0,1-3.191-.005q-5.495-5.488-10.987-10.979a2.165,2.165,0,0,1-.574-2.4.7.7,0,0,0-.2-.557c-1.731-1.753-3.477-3.491-5.219-5.233l-5.94-5.944-4.013,4c.058.065.174.192.286.321a2.08,2.08,0,0,1-.046,2.866c-.451.482-.926.942-1.4,1.405a2.084,2.084,0,0,1-3.171-.017q-3.662-3.648-7.312-7.308-1.893-1.893-3.786-3.788a2.1,2.1,0,0,1-.02-3.245q.6-.611,1.212-1.212a2.1,2.1,0,0,1,3.215-.018c.051.048.1.1.113.1l12.688-12.7a2.213,2.213,0,0,1-.784-2.1,6.32,6.32,0,0,1,3.146-3.146,2.015,2.015,0,0,1,1.866.574q5.687,5.676,11.359,11.365a2.051,2.051,0,0,1-.022,2.979c-.419.438-.855.861-1.286,1.289a2.1,2.1,0,0,1-3.251.045l-.209-.19c-.665.67-1.325,1.34-1.991,2s-1.317,1.306-2.044,2.025c.5.481.971.929,1.431,1.39s.5.955.134,1.314-.84.33-1.309-.145c-.449-.456-.878-.931-1.278-1.356l-2.3,2.28,11.389,11.388,2.235-2.238c-.075-.081-.2-.224-.338-.36l-5.567-5.568a2.717,2.717,0,0,1-.361-.392.78.78,0,0,1,.086-1.071.757.757,0,0,1,1.067-.07,5.514,5.514,0,0,1,.58.554q2.766,2.765,5.526,5.533a.55.55,0,0,0,.686.164,2,2,0,0,1,2.24.568q3.022,3.039,6.058,6.062c1.566,1.565,3.146,3.117,4.687,4.705a11.283,11.283,0,0,1,1.014,1.413Zm-35.848-17.627,12.617-12.6-8.213-8.225-12.618,12.617Zm34.225,17.2a3.724,3.724,0,0,0-.325-.444q-5.466-5.475-10.936-10.948c-.3-.3-.536-.33-.849-.01q-1.821,1.853-3.673,3.673c-.32.314-.289.546.014.848q5.48,5.463,10.943,10.942c.3.3.542.333.854.017,1.216-1.233,2.446-2.451,3.667-3.678A4.041,4.041,0,0,0,2602.32,2437.771Zm-28.405-43.133a3.94,3.94,0,0,0-.405.3c-.422.411-.829.838-1.255,1.244-.318.3-.285.562.015.862q5.554,5.541,11.1,11.1c.3.3.561.335.865.019.409-.424.825-.842,1.25-1.249.32-.306.28-.563-.019-.861q-5.554-5.543-11.1-11.092A3.539,3.539,0,0,0,2573.915,2394.638Zm-5.291,28.981a5.558,5.558,0,0,0-.381-.482q-1.545-1.559-3.1-3.107l-7.838-7.837c-.471-.47-.576-.469-1.046-.005-.381.377-.751.765-1.139,1.133a.511.511,0,0,0-.006.86c.49.47.962.957,1.441,1.437q4.791,4.79,9.581,9.579c.47.47.582.469,1.047.009.38-.377.763-.752,1.133-1.139A3.432,3.432,0,0,0,2568.624,2423.619Z" transform="translate(-2226.834)" fill="#023a77"/>
    <path id="Trazado_3748" data-name="Trazado 3748" d="M2579.488,2438.5c.411,0,.853-.012,1.294,0a3.531,3.531,0,0,1,3.472,3.279,23.633,23.633,0,0,1,.025,2.676,1.366,1.366,0,0,1-1.391,1.4c-.16.014-.321.009-.482.009h-31.437a4.582,4.582,0,0,1-.588-.025,1.366,1.366,0,0,1-1.283-1.392c-.017-.839-.025-1.679,0-2.517a3.579,3.579,0,0,1,3.45-3.43c.445-.016.891,0,1.4,0,.012-.222.032-.41.032-.6,0-1.214-.005-2.428,0-3.642a1.771,1.771,0,0,1,1.931-1.934c.678-.007,1.356-.012,2.035,0a.844.844,0,0,1,.936.817.854.854,0,0,1-.955.855c-.745.012-1.49,0-2.267,0v4.454H2577.7v-4.453h-13.93a3.267,3.267,0,0,1-.534-.014.828.828,0,0,1-.012-1.649,2.841,2.841,0,0,1,.481-.015q6.8,0,13.6,0a1.841,1.841,0,0,1,2.1,2.1q0,1.954.013,3.909C2579.42,2438.371,2579.445,2438.4,2579.488,2438.5Zm-28.677,5.657h31.808c0-.765.035-1.5-.008-2.223a1.992,1.992,0,0,0-2.253-1.795q-13.655,0-27.309,0a3.344,3.344,0,0,0-.848.088,1.692,1.692,0,0,0-1.367,1.417A20.35,20.35,0,0,0,2550.811,2444.16Z" transform="translate(-2226.834)" fill="#023a77"/>
  </g>
</svg>
