<svg xmlns="http://www.w3.org/2000/svg" xmlns:xlink="http://www.w3.org/1999/xlink" width="105.812" height="105.812" viewBox="0 0 105.812 105.812">
  <defs>
    <filter id="Elipse_202" x="0" y="0" width="105.812" height="105.812" filterUnits="userSpaceOnUse">
      <feOffset dx="5" dy="10" input="SourceAlpha"/>
      <feGaussianBlur stdDeviation="5" result="blur"/>
      <feFlood flood-color="#1e2577" flood-opacity="0.302"/>
      <feComposite operator="in" in2="blur"/>
      <feComposite in="SourceGraphic"/>
    </filter>
  </defs>
  <g id="Grupo_240" data-name="Grupo 240" transform="translate(-410.053 -1124.235)">
    <g transform="matrix(1, 0, 0, 1, 410.05, 1124.23)" filter="url(#Elipse_202)">
      <circle id="Elipse_202-2" data-name="Elipse 202" cx="37.906" cy="37.906" r="37.906" transform="translate(10 5)" fill="#023a77"/>
    </g>
    <g id="Grupo_131" data-name="Grupo 131" transform="translate(-4473.071)">
      <path id="Trazado_3674" data-name="Trazado 3674" d="M4931.029,1162.375a4.766,4.766,0,1,0,4.767,4.766A4.765,4.765,0,0,0,4931.029,1162.375Zm0,7.149a2.383,2.383,0,1,1,2.384-2.383A2.383,2.383,0,0,1,4931.029,1169.524Z" fill="#fff"/>
      <path id="Trazado_3675" data-name="Trazado 3675" d="M4942.1,1169.405l-.529-.305a10.865,10.865,0,0,0,0-3.921l.529-.3a3.577,3.577,0,0,0-3.575-6.2l-.53.307a10.7,10.7,0,0,0-3.4-1.957v-.611a3.574,3.574,0,1,0-7.149,0v.611a10.7,10.7,0,0,0-3.394,1.961l-.532-.308a3.577,3.577,0,1,0-3.575,6.2h0l.529.305a10.86,10.86,0,0,0,0,3.92l-.529.3a3.577,3.577,0,1,0,3.575,6.2h0l.53-.306a10.681,10.681,0,0,0,3.4,1.956v.612a3.574,3.574,0,0,0,7.149,0v-.612a10.7,10.7,0,0,0,3.394-1.961l.532.308a3.577,3.577,0,1,0,3.575-6.2h0Zm-3.036-4.5a8.4,8.4,0,0,1,0,4.469,1.191,1.191,0,0,0,.553,1.35l1.291.746a1.192,1.192,0,0,1-1.191,2.065h0l-1.294-.749a1.193,1.193,0,0,0-1.448.2,8.324,8.324,0,0,1-3.864,2.234,1.192,1.192,0,0,0-.9,1.155v1.493a1.192,1.192,0,0,1-2.383,0v-1.492a1.192,1.192,0,0,0-.9-1.155,8.312,8.312,0,0,1-3.863-2.239,1.192,1.192,0,0,0-1.448-.2l-1.291.747a1.192,1.192,0,0,1-1.206-2.056l.014-.008,1.292-.746a1.191,1.191,0,0,0,.552-1.35,8.4,8.4,0,0,1,0-4.468,1.19,1.19,0,0,0-.554-1.345l-1.291-.746a1.192,1.192,0,1,1,1.191-2.065l1.294.748a1.193,1.193,0,0,0,1.447-.192,8.319,8.319,0,0,1,3.864-2.234,1.192,1.192,0,0,0,.9-1.159v-1.492a1.192,1.192,0,1,1,2.383,0v1.492a1.19,1.19,0,0,0,.9,1.154,8.332,8.332,0,0,1,3.864,2.239,1.192,1.192,0,0,0,1.448.2l1.291-.747a1.192,1.192,0,1,1,1.206,2.056l-.014.007-1.292.746a1.193,1.193,0,0,0-.551,1.346Z" fill="#fff"/>
    </g>
  </g>
</svg>
