<svg xmlns="http://www.w3.org/2000/svg" width="41.135" height="41.185" viewBox="0 0 41.135 41.185">
  <g id="Grupo_148" data-name="Grupo 148" transform="translate(-3263.018 -2108.385)">
    <path id="Trazado_3745" data-name="Trazado 3745" d="M3289.5,2137.018a16.131,16.131,0,1,1,2.158-2.146c.118.125.238.258.364.384q5.622,5.646,11.243,11.292a5.136,5.136,0,0,1,.654.763,1.466,1.466,0,0,1-2.146,1.939,5.76,5.76,0,0,1-.466-.442l-11.429-11.43C3289.759,2137.261,3289.636,2137.15,3289.5,2137.018Zm2.937-12.429a13.228,13.228,0,1,0-13.2,13.216A13.234,13.234,0,0,0,3292.435,2124.589Z" fill="#023a77"/>
    <path id="Trazado_3746" data-name="Trazado 3746" d="M3289.493,2124.279c.019,1.092-.595,1.8-1.527,1.764a1.507,1.507,0,0,1-1.413-1.565,7.238,7.238,0,0,0-4.466-6.661,7.12,7.12,0,0,0-2.9-.6,1.459,1.459,0,0,1-1.448-1.474,1.444,1.444,0,0,1,1.511-1.45,12.832,12.832,0,0,1,1.959.191A10.3,10.3,0,0,1,3289.493,2124.279Z" fill="#023a77"/>
  </g>
</svg>
