<svg xmlns="http://www.w3.org/2000/svg" xmlns:xlink="http://www.w3.org/1999/xlink" width="105.109" height="105.109" viewBox="0 0 105.109 105.109">
  <defs>
    <filter id="Rect치ngulo_69" x="0" y="0" width="105.109" height="105.109" filterUnits="userSpaceOnUse">
      <feOffset dx="7" dy="7" input="SourceAlpha"/>
      <feGaussianBlur stdDeviation="6.5" result="blur"/>
      <feFlood flood-color="#4f2403" flood-opacity="0.161"/>
      <feComposite operator="in" in2="blur"/>
      <feComposite in="SourceGraphic"/>
    </filter>
  </defs>
  <g id="Grupo_229" data-name="Grupo 229" transform="translate(-312.785 -924.497)">
    <g transform="matrix(1, 0, 0, 1, 312.79, 924.5)" filter="url(#Rect치ngulo_69)">
      <rect id="Rect치ngulo_69-2" data-name="Rect치ngulo 69" width="66.109" height="66.109" transform="translate(12.5 12.5)" fill="#023a77"/>
    </g>
    <g id="Grupo_105" data-name="Grupo 105" transform="translate(-6513.998)">
      <path id="Trazado_3614" data-name="Trazado 3614" d="M6880.014,960.182h-7.159a1.12,1.12,0,0,1-.49-.11l-3.461-1.737a3.308,3.308,0,0,0-1.471-.346h-2.772a5.49,5.49,0,0,0-5.484,5.483v13.16a5.491,5.491,0,0,0,5.484,5.483h15.353a5.49,5.49,0,0,0,5.483-5.483V965.665A5.489,5.489,0,0,0,6880.014,960.182Zm-15.353,0h2.772a1.119,1.119,0,0,1,.49.109l3.461,1.732a3.3,3.3,0,0,0,1.471.352h7.159a3.29,3.29,0,0,1,3.047,2.064l-21.69.123v-1.09A3.29,3.29,0,0,1,6864.661,960.182Zm15.353,19.74h-15.353a3.29,3.29,0,0,1-3.29-3.29v-9.877l21.933-.124v10A3.29,3.29,0,0,1,6880.014,979.922Z" fill="#fff"/>
    </g>
  </g>
</svg>
