<svg xmlns="http://www.w3.org/2000/svg" xmlns:xlink="http://www.w3.org/1999/xlink" width="105.812" height="105.812" viewBox="0 0 105.812 105.812">
  <defs>
    <filter id="Elipse_210" x="0" y="0" width="105.812" height="105.812" filterUnits="userSpaceOnUse">
      <feOffset dx="5" dy="10" input="SourceAlpha"/>
      <feGaussianBlur stdDeviation="5" result="blur"/>
      <feFlood flood-color="#1e2577" flood-opacity="0.302"/>
      <feComposite operator="in" in2="blur"/>
      <feComposite in="SourceGraphic"/>
    </filter>
  </defs>
  <g id="Grupo_248" data-name="Grupo 248" transform="translate(-1000.735 -1363.246)">
    <g transform="matrix(1, 0, 0, 1, 1000.73, 1363.25)" filter="url(#Elipse_210)">
      <circle id="Elipse_210-2" data-name="Elipse 210" cx="37.906" cy="37.906" r="37.906" transform="translate(10 5)" fill="#023a77"/>
    </g>
    <path id="Trazado_3696" data-name="Trazado 3696" d="M5533.49,1394.923l-2.939-3.035a3.885,3.885,0,0,0-2.774-1.174h-6.066a6.444,6.444,0,0,0-6.3,5.146h-.128a6.44,6.44,0,0,0-6.433,6.433v12.865a6.441,6.441,0,0,0,6.433,6.433H5523a6.442,6.442,0,0,0,6.433-6.433v-.129a6.444,6.444,0,0,0,5.146-6.3V1397.61A3.848,3.848,0,0,0,5533.49,1394.923ZM5523,1419.018h-7.719a3.86,3.86,0,0,1-3.86-3.86v-12.865a3.86,3.86,0,0,1,3.86-3.86v10.292a6.44,6.44,0,0,0,6.432,6.433h5.146A3.859,3.859,0,0,1,5523,1419.018Zm5.146-6.433h-6.433a3.859,3.859,0,0,1-3.859-3.86v-11.579a3.859,3.859,0,0,1,3.859-3.859h5.146v2.573a2.573,2.573,0,0,0,2.574,2.573H5532v10.292A3.86,3.86,0,0,1,5528.144,1412.585Z" transform="translate(-4473.071)" fill="#fff"/>
  </g>
</svg>
