<svg xmlns="http://www.w3.org/2000/svg" xmlns:xlink="http://www.w3.org/1999/xlink" width="105.812" height="105.812" viewBox="0 0 105.812 105.812">
  <defs>
    <filter id="Elipse_209" x="0" y="0" width="105.812" height="105.812" filterUnits="userSpaceOnUse">
      <feOffset dx="5" dy="10" input="SourceAlpha"/>
      <feGaussianBlur stdDeviation="5" result="blur"/>
      <feFlood flood-color="#1e2577" flood-opacity="0.302"/>
      <feComposite operator="in" in2="blur"/>
      <feComposite in="SourceGraphic"/>
    </filter>
  </defs>
  <g id="Grupo_247" data-name="Grupo 247" transform="translate(-1000.735 -1240.518)">
    <g transform="matrix(1, 0, 0, 1, 1000.73, 1240.52)" filter="url(#Elipse_209)">
      <circle id="Elipse_209-2" data-name="Elipse 209" cx="37.906" cy="37.906" r="37.906" transform="translate(10 5)" fill="#023a77"/>
    </g>
    <path id="Trazado_3694" data-name="Trazado 3694" d="M5532.494,1276.177l-7.906-3.766a5.6,5.6,0,0,0-5.664-.048l-7.994,3.814c-.03.015-.061.031-.09.049a3.957,3.957,0,0,0,.09,6.92l2.2,1.051v5.253a5.368,5.368,0,0,0,3.773,5.122,18,18,0,0,0,9.608.006,5.37,5.37,0,0,0,3.773-5.123v-5.261l2.144-1.025v8.843a1.072,1.072,0,1,0,2.144,0v-12.865A3.592,3.592,0,0,0,5532.494,1276.177Zm-4.35,13.278a3.217,3.217,0,0,1-2.251,3.07,15.917,15.917,0,0,1-8.362,0,3.218,3.218,0,0,1-2.252-3.07v-4.237l3.556,1.694a5.65,5.65,0,0,0,2.9.792,5.354,5.354,0,0,0,2.763-.744l3.646-1.742Zm3.431-8.244-8.086,3.859a3.529,3.529,0,0,1-3.634-.048l-7.911-3.763a1.814,1.814,0,0,1-.04-3.171l8.036-3.838a3.537,3.537,0,0,1,3.634.048l7.906,3.766a1.855,1.855,0,0,1,.953,1.6,1.825,1.825,0,0,1-.858,1.549Z" transform="translate(-4473.071)" fill="#fff"/>
  </g>
</svg>
