<svg xmlns="http://www.w3.org/2000/svg" width="19.758" height="19.758" viewBox="0 0 19.758 19.758">
  <path id="Trazado_7219" data-name="Trazado 7219" d="M1815.888,75.47a3.7,3.7,0,1,1,3.7-3.705A3.7,3.7,0,0,1,1815.888,75.47Zm0-5.763a2.058,2.058,0,1,0,2.058,2.058A2.058,2.058,0,0,0,1815.888,69.707Zm6.174,11.526a4.121,4.121,0,0,0-4.116-4.116h-4.116a4.121,4.121,0,0,0-4.117,4.116v3.293h1.647V81.233a2.47,2.47,0,0,1,2.47-2.47h4.116a2.47,2.47,0,0,1,2.47,2.47v3.293h1.646Zm2.058-9.056a3.7,3.7,0,1,1,3.7-3.705A3.7,3.7,0,0,1,1824.12,72.177Zm0-5.763a2.058,2.058,0,1,0,2.058,2.058A2.059,2.059,0,0,0,1824.12,66.414Zm5.351,11.526a4.12,4.12,0,0,0-4.116-4.116h-3.293V75.47h3.293a2.47,2.47,0,0,1,2.47,2.47v3.293h1.646Z" transform="translate(-1809.713 -64.768)" fill="#fff"/>
</svg>
