<svg xmlns="http://www.w3.org/2000/svg" xmlns:xlink="http://www.w3.org/1999/xlink" width="105.812" height="105.812" viewBox="0 0 105.812 105.812">
  <defs>
    <filter id="Elipse_203" x="0" y="0" width="105.812" height="105.812" filterUnits="userSpaceOnUse">
      <feOffset dx="5" dy="10" input="SourceAlpha"/>
      <feGaussianBlur stdDeviation="5" result="blur"/>
      <feFlood flood-color="#1e2577" flood-opacity="0.302"/>
      <feComposite operator="in" in2="blur"/>
      <feComposite in="SourceGraphic"/>
    </filter>
  </defs>
  <g id="Grupo_241" data-name="Grupo 241" transform="translate(-410.053 -1240.518)">
    <g transform="matrix(1, 0, 0, 1, 410.05, 1240.52)" filter="url(#Elipse_203)">
      <circle id="Elipse_203-2" data-name="Elipse 203" cx="37.906" cy="37.906" r="37.906" transform="translate(10 5)" fill="#023a77"/>
    </g>
    <g id="Grupo_132" data-name="Grupo 132" transform="translate(-4473.071)">
      <path id="Trazado_3676" data-name="Trazado 3676" d="M4931.029,1287.712a4.289,4.289,0,1,1,4.289-4.288A4.288,4.288,0,0,1,4931.029,1287.712Zm0-6.432a2.144,2.144,0,1,0,2.145,2.144A2.144,2.144,0,0,0,4931.029,1281.28Zm6.433,13.937a6.432,6.432,0,1,0-12.865,0,1.072,1.072,0,0,0,2.144,0,4.288,4.288,0,0,1,8.577,0,1.072,1.072,0,0,0,2.144,0Zm0-16.082a4.288,4.288,0,1,1,4.289-4.288A4.289,4.289,0,0,1,4937.462,1279.135Zm0-6.432a2.144,2.144,0,1,0,2.144,2.144A2.144,2.144,0,0,0,4937.462,1272.7Zm6.433,13.937a6.439,6.439,0,0,0-6.433-6.432,1.072,1.072,0,0,0,0,2.144,4.288,4.288,0,0,1,4.289,4.288,1.072,1.072,0,1,0,2.144,0Zm-19.3-7.505a4.288,4.288,0,1,1,4.288-4.288A4.288,4.288,0,0,1,4924.6,1279.135Zm0-6.432a2.144,2.144,0,1,0,2.144,2.144A2.144,2.144,0,0,0,4924.6,1272.7Zm-4.289,13.937a4.288,4.288,0,0,1,4.289-4.288,1.072,1.072,0,0,0,0-2.144,6.439,6.439,0,0,0-6.433,6.432,1.072,1.072,0,1,0,2.144,0Z" fill="#fff"/>
    </g>
  </g>
</svg>
