<svg xmlns="http://www.w3.org/2000/svg" width="25.011" height="30.013" viewBox="0 0 25.011 30.013">
  <path id="Trazado_3517" data-name="Trazado 3517" d="M12024.355,1041.422h-11.772a3.752,3.752,0,0,0-3.752,3.752v26.261h25.011v-20.526Zm.732,4.269,4.484,4.485h-4.484Zm-13.756,23.243v-23.76a1.251,1.251,0,0,1,1.251-1.251h10v8.754h8.754v16.257Zm14.122-11.1,1.769,1.769-4.484,4.483a3.752,3.752,0,0,1-5.306,0h0l-1.981-1.982,1.768-1.769,1.984,1.983a1.28,1.28,0,0,0,1.768,0Z" transform="translate(-12008.831 -1041.422)" fill="#023a77"/>
</svg>
