<svg xmlns="http://www.w3.org/2000/svg" width="39.539" height="39.549" viewBox="0 0 39.539 39.549">
  <g id="Grupo_236" data-name="Grupo 236" transform="translate(-1045.361 -1865.835)">
    <path id="Trazado_3751" data-name="Trazado 3751" d="M3292.275,1865.835a1.558,1.558,0,0,1,1.167,1.417,1.423,1.423,0,0,1-1.273,1.53c-.842.094-1.7.1-2.535.211a16.782,16.782,0,0,0-13.892,12.349,16.337,16.337,0,0,0,3.75,15.451,15.926,15.926,0,0,0,9.809,5.378,16.326,16.326,0,0,0,13.669-3.919,15.989,15.989,0,0,0,5.213-8.382,35.416,35.416,0,0,0,.55-3.69c.03-.216.01-.438.036-.655a1.457,1.457,0,0,1,1.581-1.394,1.479,1.479,0,0,1,1.384,1.561,17.745,17.745,0,0,1-.709,5.142c-2.216,7.275-6.971,12.061-14.34,13.938a19.64,19.64,0,0,1-23.257-12.306,18.763,18.763,0,0,1-1.165-5.33,3.466,3.466,0,0,0-.068-.371v-2.317c.031-.278.063-.556.094-.834a19.832,19.832,0,0,1,16.271-17.471c.744-.132,1.5-.207,2.247-.308Z" transform="translate(-2226.834)" fill="#023a77"/>
    <path id="Trazado_3752" data-name="Trazado 3752" d="M3290.7,1889.152a2.351,2.351,0,0,1,.263-.415q8.663-8.649,17.328-17.294a1.645,1.645,0,0,1,1.539-.6,1.476,1.476,0,0,1,.909,2.343,3.689,3.689,0,0,1-.339.369q-9.281,9.258-18.563,18.516a1.546,1.546,0,0,1-2.549-.048q-3.6-3.9-7.192-7.812a1.521,1.521,0,0,1-.078-2.178,1.485,1.485,0,0,1,2.2.087c.874.926,1.729,1.871,2.592,2.808Z" transform="translate(-2226.834)" fill="#023a77"/>
  </g>
</svg>
