<svg xmlns="http://www.w3.org/2000/svg" xmlns:xlink="http://www.w3.org/1999/xlink" width="105.812" height="105.812" viewBox="0 0 105.812 105.812">
  <defs>
    <filter id="Elipse_200" x="0" y="0" width="105.812" height="105.812" filterUnits="userSpaceOnUse">
      <feOffset dx="5" dy="10" input="SourceAlpha"/>
      <feGaussianBlur stdDeviation="5" result="blur"/>
      <feFlood flood-color="#1e2577" flood-opacity="0.302"/>
      <feComposite operator="in" in2="blur"/>
      <feComposite in="SourceGraphic"/>
    </filter>
  </defs>
  <g id="Grupo_238" data-name="Grupo 238" transform="translate(-410.053 -885.288)">
    <g transform="matrix(1, 0, 0, 1, 410.05, 885.29)" filter="url(#Elipse_200)">
      <circle id="Elipse_200-2" data-name="Elipse 200" cx="37.906" cy="37.906" r="37.906" transform="translate(10 5)" fill="#023a77"/>
    </g>
    <g id="Grupo_129" data-name="Grupo 129" transform="translate(-4473.071)">
      <g id="Grupo_128" data-name="Grupo 128">
        <path id="Trazado_3665" data-name="Trazado 3665" d="M4938.165,916.325,4925.094,929.4a5.323,5.323,0,0,0-1.569,3.789v1.44a1.072,1.072,0,0,0,1.072,1.072h1.44a5.326,5.326,0,0,0,3.79-1.569l13.071-13.071a3.352,3.352,0,0,0,0-4.733A3.426,3.426,0,0,0,4938.165,916.325Zm3.217,3.217-13.071,13.071a3.237,3.237,0,0,1-2.274.941h-.368v-.368a3.233,3.233,0,0,1,.941-2.273l13.071-13.072a1.232,1.232,0,0,1,1.7,0A1.205,1.205,0,0,1,4941.382,919.542Z" fill="#fff"/>
        <path id="Trazado_3666" data-name="Trazado 3666" d="M4942.823,924.955a1.072,1.072,0,0,0-1.072,1.072v5.383h-4.289a3.216,3.216,0,0,0-3.216,3.216v4.289h-10.721a3.217,3.217,0,0,1-3.217-3.217V920.689a3.217,3.217,0,0,1,3.217-3.217h9.694a1.072,1.072,0,0,0,0-2.144h-9.694a5.368,5.368,0,0,0-5.361,5.361V935.7a5.368,5.368,0,0,0,5.361,5.361h12.161a5.327,5.327,0,0,0,3.791-1.57l2.847-2.849a5.329,5.329,0,0,0,1.571-3.79v-6.823A1.072,1.072,0,0,0,4942.823,924.955Zm-4.862,13.018a3.189,3.189,0,0,1-1.571.858v-4.205a1.072,1.072,0,0,1,1.072-1.072h4.208a3.228,3.228,0,0,1-.857,1.57Z" fill="#fff"/>
      </g>
    </g>
  </g>
</svg>
