<svg xmlns="http://www.w3.org/2000/svg" xmlns:xlink="http://www.w3.org/1999/xlink" width="105.109" height="105.109" viewBox="0 0 105.109 105.109">
  <defs>
    <filter id="Rect치ngulo_71" x="0" y="0" width="105.109" height="105.109" filterUnits="userSpaceOnUse">
      <feOffset dx="7" dy="7" input="SourceAlpha"/>
      <feGaussianBlur stdDeviation="6.5" result="blur"/>
      <feFlood flood-color="#4f2403" flood-opacity="0.161"/>
      <feComposite operator="in" in2="blur"/>
      <feComposite in="SourceGraphic"/>
    </filter>
  </defs>
  <g id="Grupo_231" data-name="Grupo 231" transform="translate(-1007.776 -924.497)">
    <g transform="matrix(1, 0, 0, 1, 1007.78, 924.5)" filter="url(#Rect치ngulo_71)">
      <rect id="Rect치ngulo_71-2" data-name="Rect치ngulo 71" width="66.109" height="66.109" transform="translate(12.5 12.5)" fill="#023a77"/>
    </g>
    <g id="Grupo_106" data-name="Grupo 106" transform="translate(-6513.998)">
      <path id="Trazado_3615" data-name="Trazado 3615" d="M7561.8,970.636a5.527,5.527,0,1,1,5.527-5.527A5.528,5.528,0,0,1,7561.8,970.636Zm0-8.6a3.071,3.071,0,1,0,3.071,3.071A3.07,3.07,0,0,0,7561.8,962.038Zm9.212,17.2a6.149,6.149,0,0,0-6.141-6.142h-6.141a6.149,6.149,0,0,0-6.141,6.142v4.912h2.456v-4.912a3.685,3.685,0,0,1,3.685-3.685h6.141a3.684,3.684,0,0,1,3.684,3.685v4.912h2.457Zm3.07-13.511a5.527,5.527,0,1,1,5.527-5.527A5.527,5.527,0,0,1,7574.083,965.723Zm0-8.6a3.071,3.071,0,1,0,3.071,3.07A3.07,3.07,0,0,0,7574.083,957.126Zm7.984,17.2a6.148,6.148,0,0,0-6.141-6.141h-4.913v2.456h4.913a3.684,3.684,0,0,1,3.684,3.685v4.913h2.457Z" fill="#fff"/>
    </g>
  </g>
</svg>
