<svg xmlns="http://www.w3.org/2000/svg" width="47.12" height="50.535" viewBox="0 0 47.12 50.535">
  <g id="Grupo_147" data-name="Grupo 147" transform="translate(-2553.04 -2112.4)">
    <path id="Trazado_3741" data-name="Trazado 3741" d="M2584.2,2162.935H2553.04v-50.324h13.675v1.508h-12.167v47.308H2584.2Z" fill="#023a77"/>
    <path id="Trazado_3742" data-name="Trazado 3742" d="M2600.159,2162.935H2569v-1.508h29.654v-47.308h-12.167v-1.508h13.675Z" fill="#023a77"/>
    <path id="Trazado_3743" data-name="Trazado 3743" d="M2585.587,2131.191a4.375,4.375,0,0,0-.564.507l-.326.318-9.4,8.756-1.436-1.343c-.6-.565-1.306-1.234-2.035-1.881a1.924,1.924,0,0,0-1.2-.547,1.265,1.265,0,0,0-.929.438,1.471,1.471,0,0,0,.272,2.18c1.048,1.008,2.111,2,3.175,2.993l1.2,1.122c1.242,1.163,1.736,1.151,2.936-.077q4.821-4.935,9.625-9.889a4.589,4.589,0,0,0,.636-.756,1.372,1.372,0,0,0-1.958-1.821Z" fill="#023a77"/>
    <path id="Trazado_3744" data-name="Trazado 3744" d="M2571.08,2112.405a1.357,1.357,0,0,0-.981.333.893.893,0,0,0-.241.665c.015.838.8.965,1.274.967l3.738,0h2.966l3.93,0a3.422,3.422,0,0,0,.652-.028.982.982,0,0,0-.32-1.933q-2.886-.01-5.772-.009Q2573.7,2112.4,2571.08,2112.405Z" fill="#023a77"/>
  </g>
</svg>
