<svg xmlns="http://www.w3.org/2000/svg" xmlns:xlink="http://www.w3.org/1999/xlink" width="105.812" height="105.812" viewBox="0 0 105.812 105.812">
  <defs>
    <filter id="Elipse_211" x="0" y="0" width="105.812" height="105.812" filterUnits="userSpaceOnUse">
      <feOffset dx="5" dy="10" input="SourceAlpha"/>
      <feGaussianBlur stdDeviation="5" result="blur"/>
      <feFlood flood-color="#1e2577" flood-opacity="0.302"/>
      <feComposite operator="in" in2="blur"/>
      <feComposite in="SourceGraphic"/>
    </filter>
  </defs>
  <g id="Grupo_249" data-name="Grupo 249" transform="translate(-1000.735 -1479.529)">
    <g transform="matrix(1, 0, 0, 1, 1000.73, 1479.53)" filter="url(#Elipse_211)">
      <circle id="Elipse_211-2" data-name="Elipse 211" cx="37.906" cy="37.906" r="37.906" transform="translate(10 5)" fill="#023a77"/>
    </g>
    <path id="Trazado_3697" data-name="Trazado 3697" d="M5531.238,1526.012l-4.05,6.609a5.636,5.636,0,0,1-8.051,1.674,5.091,5.091,0,0,1-7.182-7.05l-1.412-1.41a5.655,5.655,0,0,1,1.025-8.8l6.192-3.828a9.513,9.513,0,0,1,11.089.591l1.781-1.781a1.074,1.074,0,1,1,1.544,1.492l-.026.026-1.779,1.78a9.613,9.613,0,0,1,.869,10.7Zm-13.737,6.782-3.994-3.995a2.923,2.923,0,0,0,.5,3.505A3.036,3.036,0,0,0,5517.5,1532.794Zm10.652-16.75a7.394,7.394,0,0,0-9.252-1.017l-6.2,3.829a3.505,3.505,0,0,0-1.139,4.825,3.564,3.564,0,0,0,.5.636l7.828,7.828a3.506,3.506,0,0,0,5.468-.644l4.032-6.577a7.449,7.449,0,0,0-1.237-8.886Zm1.373,19.276a1.073,1.073,0,0,1-.634-1.941,9.273,9.273,0,0,0,3.559-5.806,1.074,1.074,0,1,1,2.1.431l-.007.031a11.488,11.488,0,0,1-4.389,7.079A1.077,1.077,0,0,1,5529.526,1535.32Zm-19.611-19.607a1.073,1.073,0,0,1-.859-1.711,11.479,11.479,0,0,1,7.208-4.429,1.074,1.074,0,1,1,.429,2.1,9.271,9.271,0,0,0-5.919,3.6,1.072,1.072,0,0,1-.859.435Z" transform="translate(-4473.071)" fill="#fff"/>
  </g>
</svg>
