<svg xmlns="http://www.w3.org/2000/svg" width="46.2" height="46.106" viewBox="0 0 46.2 46.106">
  <path id="Trazado_3749" data-name="Trazado 3749" d="M3266.024,2432.977v-2.592c0-1.591.006-1.6,1.615-1.7v-19.066c-.283-.015-.628.063-.848-.068-.3-.181-.7-.52-.7-.79s.407-.593.7-.79c.171-.113.477-.026.722-.026H3305v-2.618h-40.063a1.683,1.683,0,0,1-.648-.015c-.357-.163-.833-.345-.957-.645-.089-.217.261-.682.508-.95a3.243,3.243,0,0,1,.839-.495q10.375-5.8,20.743-11.622a1.692,1.692,0,0,1,1.884.011q10.572,5.956,21.168,11.866c.19.106.443.175.551.337.178.27.413.643.344.9a1.057,1.057,0,0,1-.748.585,13.924,13.924,0,0,1-1.942.028v2.6c0,1.585,0,1.585-1.62,1.691v19.069c.3.014.644-.067.862.065.3.182.694.53.689.8s-.417.585-.716.779c-.174.112-.478.026-.723.026h-37.447v2.618h3.565c.246,0,.556-.086.722.031.294.207.672.519.706.822.061.548-.377.784-.918.783q-2.9,0-5.809,0h-1.037v1.113h42.789v-1.113h-29.874c-.245,0-.55.086-.723-.028-.3-.2-.714-.52-.714-.79s.42-.581.715-.792c.146-.1.424-.025.642-.025h30.269c1.26,0,1.387.132,1.389,1.423,0,.655-.017,1.31,0,1.963.025.773-.345,1.1-1.1,1.061-.136-.008-.273,0-.409,0h-43.194c-1.415,0-1.5-.083-1.5-1.467v-1.145c0-1.832,0-1.832,1.8-1.834Zm1.293-29.34h37.99c-.193-.139-.271-.209-.36-.258q-9.049-5.07-18.113-10.113a1.335,1.335,0,0,0-1.088.08c-3.865,2.125-7.711,4.284-11.559,6.437C3271.959,2401.029,3269.734,2402.281,3267.317,2403.637Zm14.575,25.064v-4.887q0-5.6,0-11.2c0-.585.141-1.066.831-1.051.63.013.8.471.8,1.018,0,.218,0,.436,0,.654v15.427h5.607v-19.027h-8.977V2428.7Zm-9.071-19.09v19.06h5.577v-19.06Zm27.064,19.085v-19.06h-5.576v19.06Zm-28.8.009v-19.059H3269.4v19.059Zm21.469-.005v-19.065h-1.668V2428.7Zm9.082-19.08v19.064h1.7V2409.62Z" transform="translate(-3263.255 -2391.322)" fill="#023a77"/>
</svg>
