<svg xmlns="http://www.w3.org/2000/svg" width="238.702" height="64.361" viewBox="0 0 238.702 64.361">
  <g id="Grupo_229" data-name="Grupo 229" transform="translate(-102.432 -45.166)">
    <g id="Grupo_187" data-name="Grupo 187">
      <path id="Trazado_3780" data-name="Trazado 3780" d="M188.624,70.366a.115.115,0,0,1,.083.032.1.1,0,0,1,.032.07v1.964a.113.113,0,0,1-.032.083.115.115,0,0,1-.083.032H174.165a3.636,3.636,0,0,1-3.647-3.647V63.443a3.636,3.636,0,0,1,3.647-3.647h14.459a.115.115,0,0,1,.083.032.113.113,0,0,1,.032.083v1.964a.1.1,0,0,1-.032.07.115.115,0,0,1-.083.032H174.165a1.046,1.046,0,0,0-.778.325,1.061,1.061,0,0,0-.319.771v6.2a1.061,1.061,0,0,0,.319.771,1.046,1.046,0,0,0,.778.325Z" fill="#f9f9f9"/>
      <path id="Trazado_3781" data-name="Trazado 3781" d="M193.286,65.075h13.732a.11.11,0,0,1,.115.115v1.963a.113.113,0,0,1-.032.083.109.109,0,0,1-.083.032H193.286v2a1.061,1.061,0,0,0,.319.771,1.046,1.046,0,0,0,.778.325h14.459a.112.112,0,0,1,.082.032.1.1,0,0,1,.032.07v1.964a.109.109,0,0,1-.032.083.112.112,0,0,1-.082.032H194.383a3.636,3.636,0,0,1-3.647-3.647V63.443a3.636,3.636,0,0,1,3.647-3.647h14.459a.112.112,0,0,1,.082.032.109.109,0,0,1,.032.083v1.964a.1.1,0,0,1-.032.07.112.112,0,0,1-.082.032H194.383a1.046,1.046,0,0,0-.778.325,1.061,1.061,0,0,0-.319.771Z" fill="#f9f9f9"/>
      <path id="Trazado_3782" data-name="Trazado 3782" d="M226.611,59.911a.11.11,0,0,1,.115-.115h2.333a.1.1,0,0,1,.07.032.109.109,0,0,1,.032.083V72.445a.1.1,0,0,1-.032.07.1.1,0,0,1-.07.032h-4.768a2.767,2.767,0,0,1-2.308-1.237l-5.929-8.836a1.117,1.117,0,0,0-.918-.485H213.5V72.445a.1.1,0,0,1-.032.07.115.115,0,0,1-.083.032h-2.333a.1.1,0,0,1-.071-.032.1.1,0,0,1-.031-.07V59.911a.112.112,0,0,1,.031-.083.1.1,0,0,1,.071-.032h4.768a2.8,2.8,0,0,1,2.308,1.25l5.929,8.823a1.085,1.085,0,0,0,.918.5h1.632Z" fill="#f9f9f9"/>
      <path id="Trazado_3783" data-name="Trazado 3783" d="M231.159,59.911a.112.112,0,0,1,.031-.083.1.1,0,0,1,.071-.032h18a.1.1,0,0,1,.07.032.109.109,0,0,1,.032.083v1.964a.1.1,0,0,1-.032.07.1.1,0,0,1-.07.032h-7.727V72.432a.112.112,0,0,1-.031.083.1.1,0,0,1-.07.032H239.1a.11.11,0,0,1-.115-.115V61.977h-7.726a.1.1,0,0,1-.071-.032.1.1,0,0,1-.031-.07Z" fill="#f9f9f9"/>
      <path id="Trazado_3784" data-name="Trazado 3784" d="M269.571,64.718a3.532,3.532,0,0,1-.586,1.995,3.585,3.585,0,0,1-1.556,1.32l.051.1,2.028,4.259a.147.147,0,0,1-.013.1.091.091,0,0,1-.089.051h-2.589a.116.116,0,0,1-.1-.064l-1.963-4.118H253.914v4.08a.1.1,0,0,1-.032.07.115.115,0,0,1-.083.032h-2.333a.1.1,0,0,1-.071-.032.1.1,0,0,1-.031-.07V59.911a.112.112,0,0,1,.031-.083.1.1,0,0,1,.071-.032h14.471a3.635,3.635,0,0,1,3.634,3.647Zm-15.657,1.453h12.023a1.043,1.043,0,0,0,.765-.318,1.058,1.058,0,0,0,.319-.778v-2a1.089,1.089,0,0,0-1.084-1.084H253.914Z" fill="#f9f9f9"/>
      <path id="Trazado_3785" data-name="Trazado 3785" d="M286.142,59.8a3.636,3.636,0,0,1,3.647,3.647V68.9a3.636,3.636,0,0,1-3.647,3.647H275.215a3.646,3.646,0,0,1-3.646-3.647V63.443a3.646,3.646,0,0,1,3.646-3.647Zm1.1,3.277a1.062,1.062,0,0,0-.319-.771,1.047,1.047,0,0,0-.778-.325H275.215a1.11,1.11,0,0,0-1.1,1.1v6.2a1.11,1.11,0,0,0,1.1,1.1h10.927a1.046,1.046,0,0,0,.778-.325,1.062,1.062,0,0,0,.319-.771Z" fill="#f9f9f9"/>
      <path id="Trazado_3786" data-name="Trazado 3786" d="M317.27,59.8a3.636,3.636,0,0,1,3.647,3.647V68.9a3.636,3.636,0,0,1-3.647,3.647H302.811a.1.1,0,0,1-.07-.032.109.109,0,0,1-.032-.083V59.911a.109.109,0,0,1,.032-.083.1.1,0,0,1,.07-.032Zm1.1,3.277a1.065,1.065,0,0,0-.319-.771,1.048,1.048,0,0,0-.778-.325H305.259v8.389H317.27a1.048,1.048,0,0,0,.778-.325,1.065,1.065,0,0,0,.319-.771Z" fill="#f9f9f9"/>
      <path id="Trazado_3787" data-name="Trazado 3787" d="M325.464,65.075H339.2a.11.11,0,0,1,.115.115v1.963a.113.113,0,0,1-.032.083.109.109,0,0,1-.083.032H325.464v2a1.062,1.062,0,0,0,.319.771,1.046,1.046,0,0,0,.778.325H341.02a.112.112,0,0,1,.082.032.1.1,0,0,1,.032.07v1.964a.109.109,0,0,1-.032.083.112.112,0,0,1-.082.032H326.561a3.636,3.636,0,0,1-3.647-3.647V63.443a3.636,3.636,0,0,1,3.647-3.647H341.02a.112.112,0,0,1,.082.032.109.109,0,0,1,.032.083v1.964a.1.1,0,0,1-.032.07.112.112,0,0,1-.082.032H326.561a1.047,1.047,0,0,0-.778.325,1.062,1.062,0,0,0-.319.771Z" fill="#f9f9f9"/>
      <path id="Trazado_3788" data-name="Trazado 3788" d="M170.518,85.813a3.636,3.636,0,0,1,3.647-3.634h10.927a3.646,3.646,0,0,1,3.647,3.634v9a.108.108,0,0,1-.115.114H186.29a.1.1,0,0,1-.07-.031.114.114,0,0,1-.031-.083v-4.08H173.068v4.08a.115.115,0,0,1-.032.083.1.1,0,0,1-.07.031h-2.333a.112.112,0,0,1-.083-.031.115.115,0,0,1-.032-.083Zm15.671,2.741v-3.1a1.049,1.049,0,0,0-.326-.778,1.065,1.065,0,0,0-.771-.319H174.165a1.089,1.089,0,0,0-1.1,1.1v3.1Z" fill="#f9f9f9"/>
      <path id="Trazado_3789" data-name="Trazado 3789" d="M208.944,87.1a3.536,3.536,0,0,1-.587,2,3.588,3.588,0,0,1-1.555,1.32l.051.1,2.027,4.258a.146.146,0,0,1-.013.1.091.091,0,0,1-.089.051H206.19a.117.117,0,0,1-.1-.063l-1.963-4.119H193.286v4.08a.1.1,0,0,1-.032.071.112.112,0,0,1-.083.031h-2.333a.1.1,0,0,1-.07-.031.1.1,0,0,1-.032-.071V82.294a.109.109,0,0,1,.032-.083.1.1,0,0,1,.07-.032H205.31a3.636,3.636,0,0,1,3.634,3.647Zm-15.658,1.453H205.31a1.043,1.043,0,0,0,.765-.319,1.058,1.058,0,0,0,.319-.777v-2a1.089,1.089,0,0,0-1.084-1.084H193.286Z" fill="#f9f9f9"/>
      <path id="Trazado_3790" data-name="Trazado 3790" d="M229.161,85.826V86a3.5,3.5,0,0,1-1.045,2.55,3.5,3.5,0,0,1,1.045,2.55v.191a3.645,3.645,0,0,1-3.646,3.634H211.056a.112.112,0,0,1-.083-.031.1.1,0,0,1-.032-.071V82.294a.109.109,0,0,1,.032-.083.113.113,0,0,1,.083-.032h14.459a3.657,3.657,0,0,1,3.646,3.647Zm-15.67-1.454v3.1h12.024a1.11,1.11,0,0,0,1.1-1.1v-.918a1.031,1.031,0,0,0-.325-.765,1.063,1.063,0,0,0-.771-.319Zm13.12,7.281v-.906a1.048,1.048,0,0,0-.325-.778,1.066,1.066,0,0,0-.771-.318H213.491v3.1h12.024a1.063,1.063,0,0,0,.771-.319A1.044,1.044,0,0,0,226.611,91.653Z" fill="#f9f9f9"/>
      <path id="Trazado_3791" data-name="Trazado 3791" d="M233.709,94.827a.1.1,0,0,1-.032.071.114.114,0,0,1-.083.031h-2.333a.106.106,0,0,1-.1-.1V82.294a.112.112,0,0,1,.031-.083.1.1,0,0,1,.071-.032h2.333a.115.115,0,0,1,.083.032.113.113,0,0,1,.032.083Z" fill="#f9f9f9"/>
      <path id="Trazado_3792" data-name="Trazado 3792" d="M235.706,82.294a.109.109,0,0,1,.032-.083.1.1,0,0,1,.07-.032h18a.1.1,0,0,1,.07.032.113.113,0,0,1,.032.083v1.963a.11.11,0,0,1-.1.1h-7.727V94.815a.115.115,0,0,1-.032.083.1.1,0,0,1-.07.031H243.65a.108.108,0,0,1-.115-.114V84.359h-7.727a.11.11,0,0,1-.1-.1Z" fill="#f9f9f9"/>
      <path id="Trazado_3793" data-name="Trazado 3793" d="M274.119,87.1a3.536,3.536,0,0,1-.587,2,3.583,3.583,0,0,1-1.555,1.32l.051.1,2.027,4.258a.146.146,0,0,1-.013.1.091.091,0,0,1-.089.051h-2.588a.114.114,0,0,1-.1-.063L269.3,90.747H258.461v4.08a.1.1,0,0,1-.032.071.112.112,0,0,1-.083.031h-2.333a.1.1,0,0,1-.07-.031.1.1,0,0,1-.032-.071V82.294a.113.113,0,0,1,.032-.083.1.1,0,0,1,.07-.032h14.472a3.636,3.636,0,0,1,3.634,3.647Zm-15.658,1.453h12.024a1.043,1.043,0,0,0,.765-.319,1.058,1.058,0,0,0,.319-.777v-2a1.089,1.089,0,0,0-1.084-1.084H258.461Z" fill="#f9f9f9"/>
      <path id="Trazado_3794" data-name="Trazado 3794" d="M276.116,85.813a3.636,3.636,0,0,1,3.647-3.634H290.69a3.646,3.646,0,0,1,3.646,3.634v9a.108.108,0,0,1-.114.114h-2.334a.1.1,0,0,1-.07-.031.115.115,0,0,1-.032-.083v-4.08h-13.12v4.08a.115.115,0,0,1-.032.083.1.1,0,0,1-.07.031h-2.333a.112.112,0,0,1-.083-.031.111.111,0,0,1-.032-.083Zm15.67,2.741v-3.1a1.048,1.048,0,0,0-.325-.778,1.067,1.067,0,0,0-.771-.319H279.763a1.089,1.089,0,0,0-1.1,1.1v3.1Z" fill="#f9f9f9"/>
      <path id="Trazado_3795" data-name="Trazado 3795" d="M314.554,91.295a3.634,3.634,0,0,1-3.647,3.634H299.98a3.645,3.645,0,0,1-3.646-3.634v-3.9a.112.112,0,0,1,.031-.083.115.115,0,0,1,.083-.032h2.334a.1.1,0,0,1,.07.032.113.113,0,0,1,.032.083v4.259a1.044,1.044,0,0,0,.325.777,1.063,1.063,0,0,0,.771.319h10.927a1.089,1.089,0,0,0,1.1-1.1V82.294a.11.11,0,0,1,.115-.115h2.32a.11.11,0,0,1,.115.115Z" fill="#f9f9f9"/>
      <path id="Trazado_3796" data-name="Trazado 3796" d="M319.1,87.458h13.732a.108.108,0,0,1,.115.114v1.964a.113.113,0,0,1-.032.083.115.115,0,0,1-.083.032H319.1v2a1.066,1.066,0,0,0,.318.771,1.048,1.048,0,0,0,.778.325h14.459a.113.113,0,0,1,.083.032.1.1,0,0,1,.032.07v1.964a.115.115,0,0,1-.032.083.112.112,0,0,1-.083.031H320.2a3.635,3.635,0,0,1-3.647-3.646V85.826a3.636,3.636,0,0,1,3.647-3.647h14.459a.11.11,0,0,1,.115.115v1.963a.1.1,0,0,1-.032.07.109.109,0,0,1-.083.032H320.2a1.052,1.052,0,0,0-.778.325,1.067,1.067,0,0,0-.318.772Z" fill="#f9f9f9"/>
    </g>
    <g id="Grupo_188" data-name="Grupo 188">
      <circle id="Elipse_253" data-name="Elipse 253" cx="7.108" cy="7.108" r="7.108" transform="translate(127.505 45.166)" fill="#f9f9f9"/>
      <circle id="Elipse_254" data-name="Elipse 254" cx="7.108" cy="7.108" r="7.108" transform="translate(114.969 57.703)" fill="#f9f9f9"/>
      <circle id="Elipse_255" data-name="Elipse 255" cx="7.108" cy="7.108" r="7.108" transform="translate(102.432 70.239)" fill="#f9f9f9"/>
      <circle id="Elipse_256" data-name="Elipse 256" cx="7.108" cy="7.108" r="7.108" transform="translate(127.505 45.166)" fill="#f9f9f9"/>
      <circle id="Elipse_257" data-name="Elipse 257" cx="7.108" cy="7.108" r="7.108" transform="translate(114.969 57.703)" fill="#f9f9f9"/>
      <circle id="Elipse_258" data-name="Elipse 258" cx="7.108" cy="7.108" r="7.108" transform="translate(102.432 70.239)" fill="#f9f9f9"/>
      <circle id="Elipse_259" data-name="Elipse 259" cx="7.108" cy="7.108" r="7.108" transform="translate(152.578 70.239)" fill="#f9f9f9"/>
      <circle id="Elipse_260" data-name="Elipse 260" cx="7.108" cy="7.108" r="7.108" transform="translate(140.042 82.775)" fill="#f9f9f9"/>
      <circle id="Elipse_261" data-name="Elipse 261" cx="7.108" cy="7.108" r="7.108" transform="translate(127.505 95.312)" fill="#f9f9f9"/>
      <circle id="Elipse_262" data-name="Elipse 262" cx="7.108" cy="7.108" r="7.108" transform="translate(140.042 57.703)" fill="#f9f9f9"/>
      <circle id="Elipse_263" data-name="Elipse 263" cx="7.108" cy="7.108" r="7.108" transform="translate(114.969 82.775)" fill="#f9f9f9"/>
      <circle id="Elipse_264" data-name="Elipse 264" cx="9.339" cy="9.339" r="9.339" transform="translate(125.274 68.008)" fill="#f9f9f9"/>
    </g>
  </g>
</svg>
